<?xml version="1.0" standalone="no"?>
<!DOCTYPE svg PUBLIC "-//W3C//DTD SVG 1.1//EN" "http://www.w3.org/Graphics/SVG/1.1/DTD/svg11.dtd" >
<svg xmlns="http://www.w3.org/2000/svg">
<metadata>Generated by IcoMoon</metadata>
<defs>
<font id="icomoon" horiz-adv-x="1024">
<font-face units-per-em="1024" ascent="896" descent="-128" />
<missing-glyph horiz-adv-x="1024" />
<glyph unicode="&#x20;" d="" />
<glyph unicode="&#xe900;" horiz-adv-x="1488" d="M979.478 835.244c5.646-4.368 12.827-7.001 20.623-7.001 18.708 0 33.875 15.166 33.875 33.875s-15.166 33.875-33.875 33.875c-10.912 0-20.62-5.16-26.815-13.173l-0.058-0.078c-4.364-5.647-6.996-12.827-6.996-20.621 0-10.912 5.158-20.62 13.168-26.818l0.078-0.058z" />
<glyph unicode="&#xe901;" horiz-adv-x="1488" d="M1360.082 214.429c-5.646 4.367-12.826 6.999-20.62 6.999-18.708 0-33.875-15.166-33.875-33.875s15.166-33.875 33.875-33.875c10.92 0 20.632 5.167 26.827 13.189l0.058 0.079c4.367 5.643 7.001 12.82 7.001 20.613 0 10.915-5.166 20.622-13.187 26.812l-0.079 0.058z" />
<glyph unicode="&#xe902;" horiz-adv-x="1488" d="M184.496 544.753c0-20.406 16.543-36.949 36.949-36.949s36.949 16.543 36.949 36.949v0c0 20.406-16.543 36.949-36.949 36.949s-36.949-16.543-36.949-36.949v0z" />
<glyph unicode="&#xe903;" horiz-adv-x="1488" d="M179.47 286.097h-80.935c-54.419 0-98.535-44.116-98.535-98.535s44.116-98.535 98.535-98.535v0h80.935c54.419 0 98.535 44.116 98.535 98.535s-44.116 98.535-98.535 98.535v0zM1124.17 55.634c0.878-6.282 1.38-13.54 1.38-20.915 0-36.717-12.43-70.531-33.311-97.463l0.271 0.363h1.923c0.075 0 0.165 0 0.254 0 56.326 0 101.988 45.662 101.988 101.988 0 45.306-29.542 83.712-70.414 97.006l-0.721 0.203v-67.021c-0.015-5.018-0.513-9.911-1.449-14.646l0.080 0.484zM1393.651 653.269h-268.083v-189.858h268.083c51.924 0.664 93.76 42.911 93.76 94.929s-41.837 94.265-93.698 94.928l-0.063 0.001z" />
<glyph unicode="&#xe904;" horiz-adv-x="1488" d="M1093.865 131.644v543.348c-0.074 25.262-20.554 45.716-45.819 45.749h-481.503c-25.293-0.033-45.789-20.528-45.822-45.818v-40.565h417.655c42.767-0.033 77.434-34.664 77.525-77.415v-367.69c31.973-11.341 58.531-31.334 77.649-57.166l0.313-0.443z" />
<glyph unicode="&#xe905;" horiz-adv-x="1488" d="M1125.539 674.992c-0.050 42.78-34.716 77.447-77.492 77.496h-481.504c-42.78-0.050-77.447-34.716-77.496-77.492v-40.567h-32.17c-42.78-0.050-77.447-34.716-77.496-77.492v-605.143c0.017-42.805 34.696-77.505 77.492-77.555h481.504c0.976 0 1.938 0.117 2.914 0.146-29.174 3.99-55.164 15.223-76.835 31.814l0.388-0.285h-407.952c-25.293 0.033-45.789 20.528-45.822 45.818v282.655h573.129v-37.663c11.898-1.593 22.604-4.209 32.839-7.824l-1.135 0.349v367.681c-0.050 42.78-34.716 77.447-77.492 77.496h-417.689v40.562c0.074 25.262 20.554 45.716 45.819 45.749h481.503c25.293-0.033 45.789-20.528 45.822-45.818v-543.278c15.813-21.244 26.629-47.096 30.221-75.207l0.084-0.803c0.86 4.27 1.358 9.183 1.37 14.211v605.147zM938.377 602.726c25.293-0.033 45.789-20.528 45.822-45.818v-76.188h-573.143v76.214c0.050 25.281 20.539 45.759 45.819 45.793h0.003zM411.055 449.074h573.143v-182.996h-573.143z" />
<glyph unicode="&#xe906;" horiz-adv-x="1488" d="M806.812-10.425h-208.478c-10.551 0.297-18.99 8.921-18.99 19.516s8.44 19.219 18.963 19.516l0.027 0.001h202.111c-0.102 2.331-0.35 4.619-0.35 6.979 0.007 35.112 11.207 67.606 30.228 94.109l-0.331-0.484h-231.658c-10.782 0-19.523 8.741-19.523 19.523s8.741 19.523 19.523 19.523v0h270.676c26.052 18.749 58.602 29.984 93.777 29.984 0.013 0 0.026 0 0.040 0h-0.002c7.593-0.059 14.999-0.623 22.252-1.662l-0.878 0.103v37.721h-573.143v-282.652c0.033-25.293 20.528-45.789 45.818-45.822h407.955c-27.28 20.766-47.614 49.395-57.713 82.489l-0.303 1.156zM504.884 175.834c14.428 0 26.123-11.696 26.123-26.123s-11.696-26.123-26.123-26.123c-14.392 0-26.065 11.638-26.123 26.016v0.006c0 0.026 0 0.057 0 0.087 0 14.431 11.694 26.13 26.123 26.138h0.001zM504.884-16.982c-14.436 0-26.138 11.702-26.138 26.138s11.702 26.138 26.138 26.138c14.436 0 26.138-11.702 26.138-26.138 0-0.005 0-0.010 0-0.015v0.001c0-0.017 0-0.038 0-0.058 0-14.428-11.696-26.123-26.123-26.123-0.005 0-0.010 0-0.015 0h0.001zM456.877 602.726c-25.293-0.033-45.789-20.528-45.822-45.818v-76.188h573.143v76.214c-0.050 25.281-20.539 45.759-45.819 45.793h-0.003zM591.268 538.124h270.647c10.782 0 19.523-8.741 19.523-19.523s-8.741-19.523-19.523-19.523h-270.647c-10.782 0-19.523 8.741-19.523 19.523s8.741 19.523 19.523 19.523v0zM531.022 518.601c0-0.004 0-0.009 0-0.015 0-14.436-11.702-26.138-26.138-26.138s-26.138 11.702-26.138 26.138c0 14.436 11.702 26.138 26.138 26.138v0c0 0 0 0 0 0 14.42 0 26.113-11.678 26.138-26.092v-0.002z" />
<glyph unicode="&#xe907;" horiz-adv-x="1488" d="M984.198 266.079v182.996h-573.143v-182.996zM591.268 372.438h270.647c0.159 0.005 0.346 0.007 0.533 0.007 10.782 0 19.523-8.741 19.523-19.523s-8.741-19.523-19.523-19.523c-0.188 0-0.374 0.003-0.561 0.008l0.027-0.001h-270.647c-10.551 0.297-18.99 8.921-18.99 19.516s8.44 19.219 18.963 19.516l0.027 0.001zM478.761 352.914c0 0.004 0 0.009 0 0.015 0 14.436 11.702 26.138 26.138 26.138s26.138-11.702 26.138-26.138c0-14.436-11.702-26.138-26.138-26.138-0.005 0-0.010 0-0.015 0h0.001c-14.419 0.008-26.107 11.691-26.123 26.107v0.002z" />
<glyph unicode="&#xe908;" horiz-adv-x="1488" d="M478.775 518.63c0-0.002 0-0.003 0-0.005 0-14.428 11.696-26.123 26.123-26.123s26.123 11.696 26.123 26.123c0 0.002 0 0.004 0 0.005v0c0 0.002 0 0.003 0 0.005 0 14.428-11.696 26.123-26.123 26.123s-26.123-11.696-26.123-26.123c0-0.002 0-0.004 0-0.005v0z" />
<glyph unicode="&#xe909;" horiz-adv-x="1488" d="M591.268 499.107h270.647c0.001 0 0.003 0 0.004 0 10.782 0 19.523 8.741 19.523 19.523s-8.741 19.523-19.523 19.523c-0.002 0-0.003 0-0.005 0h-270.647c-10.781-0.003-19.519-8.742-19.519-19.523s8.738-19.521 19.519-19.523v0z" />
<glyph unicode="&#xe90a;" horiz-adv-x="1488" d="M504.884 326.776c0.004 0 0.009 0 0.015 0 14.436 0 26.138 11.702 26.138 26.138s-11.702 26.138-26.138 26.138c-14.436 0-26.138-11.702-26.138-26.138 0-0.005 0-0.010 0-0.015v0.001c0.008-14.424 11.699-26.115 26.123-26.123h0.001z" />
<glyph unicode="&#xe90b;" horiz-adv-x="1488" d="M504.884 123.529c14.428 0 26.123 11.696 26.123 26.123s-11.696 26.123-26.123 26.123c-14.428 0-26.123-11.696-26.123-26.123 0-0.015 0-0.031 0-0.046v0.002c0.033-14.405 11.715-26.072 26.123-26.080h0.001zM531.022 9.084c0 0.004 0 0.009 0 0.015 0 14.436-11.702 26.138-26.138 26.138s-26.138-11.702-26.138-26.138c0-14.436 11.702-26.138 26.138-26.138v0c14.431 0 26.13 11.694 26.138 26.123v0.001z" />
<glyph unicode="&#xe90c;" horiz-adv-x="1488" d="M591.268 333.391h270.647c0.159-0.005 0.346-0.007 0.533-0.007 10.782 0 19.523 8.741 19.523 19.523s-8.741 19.523-19.523 19.523c-0.188 0-0.374-0.003-0.561-0.008l0.027 0.001h-270.647c-10.551-0.297-18.99-8.921-18.99-19.516s8.44-19.219 18.963-19.516l0.027-0.001z" />
<glyph unicode="&#xe90d;" horiz-adv-x="1488" d="M1093.865 35.586c0 72.42-58.708 131.127-131.127 131.127s-131.127-58.708-131.127-131.127c0-72.42 58.708-131.127 131.127-131.127 0.031 0 0.061 0 0.092 0h-0.005c72.365 0.091 130.999 58.755 131.040 131.123v0.004zM1012.668-18.322c-2.398-2.23-5.623-3.599-9.168-3.599-3.844 0-7.312 1.609-9.767 4.191l-0.005 0.006-31.485 33.51-33.51-31.485c-2.399-2.227-5.624-3.593-9.168-3.593-3.843 0-7.311 1.607-9.768 4.185l-0.005 0.005-0.728 0.787c-2.234 2.396-3.605 5.623-3.605 9.169 0 3.845 1.612 7.313 4.196 9.766l0.006 0.006 33.51 31.485-31.485 33.51c-2.23 2.398-3.599 5.623-3.599 9.168 0 3.844 1.609 7.312 4.191 9.767l0.006 0.005 0.787 0.728c2.398 2.23 5.623 3.599 9.168 3.599 3.844 0 7.312-1.609 9.767-4.191l0.005-0.006 31.485-33.51 33.51 31.485c2.398 2.23 5.623 3.599 9.168 3.599 3.844 0 7.312-1.609 9.767-4.191l0.748-0.792c2.23-2.398 3.599-5.623 3.599-9.168 0-3.844-1.609-7.312-4.191-9.767l-0.006-0.005-33.51-31.485 31.485-33.51c2.23-2.398 3.599-5.623 3.599-9.168 0-3.844-1.609-7.312-4.191-9.767l-0.006-0.005z" />
<glyph unicode="&#xe90e;" horiz-adv-x="1488" d="M1124.17 55.634c-3.676 28.914-14.492 54.767-30.612 76.441l0.307-0.431c-30.080 40.302-77.488 66.23-130.972 66.656h-0.068c-0.011 0-0.024 0-0.038 0-35.175 0-67.725-11.236-94.258-30.314l0.481 0.329h-270.676c-10.782 0-19.523-8.741-19.523-19.523s8.741-19.523 19.523-19.523v0h231.658c-18.695-26.027-29.897-58.532-29.897-93.654 0-0.010 0-0.020 0-0.031v0.001c0-2.36 0.248-4.648 0.35-6.979h-202.111c-10.551-0.297-18.99-8.921-18.99-19.516s8.44-19.219 18.963-19.516l0.027-0.001h208.478c20.177-68.444 82.449-117.549 156.189-117.549 89.768 0 162.54 72.771 162.54 162.54 0 7.429-0.498 14.741-1.463 21.905l0.092-0.836zM962.825-95.469c-0.026 0-0.057 0-0.087 0-72.42 0-131.127 58.708-131.127 131.127s58.708 131.127 131.127 131.127c72.42 0 131.127-58.708 131.127-131.127v0c-0.050-72.369-58.678-131.028-131.030-131.127h-0.010z" />
<glyph unicode="&#xe90f;" horiz-adv-x="1488" d="M1014.052 1.42l-31.485 33.51 33.51 31.485c2.587 2.461 4.196 5.929 4.196 9.772 0 3.545-1.369 6.77-3.607 9.176l0.008-0.008-0.743 0.787c-2.461 2.587-5.929 4.196-9.772 4.196-3.545 0-6.77-1.369-9.176-3.607l0.008 0.008-33.51-31.485-31.485 33.51c-2.461 2.587-5.929 4.196-9.772 4.196-3.545 0-6.77-1.369-9.176-3.607l0.008 0.008-0.787-0.728c-2.587-2.461-4.196-5.929-4.196-9.772 0-3.545 1.369-6.77 3.607-9.176l-0.008 0.008 31.485-33.51-33.51-31.485c-2.591-2.459-4.202-5.927-4.202-9.772 0-3.546 1.371-6.772 3.612-9.177l-0.007 0.008 0.728-0.787c2.462-2.584 5.93-4.191 9.773-4.191 3.544 0 6.769 1.366 9.176 3.601l-0.009-0.008 33.51 31.485 31.485-33.51c2.461-2.587 5.929-4.196 9.772-4.196 3.545 0 6.77 1.369 9.176 3.607l-0.008-0.008 0.787 0.743c2.588 2.461 4.197 5.929 4.197 9.773 0 3.538-1.363 6.757-3.593 9.162l0.008-0.009z" />
<glyph unicode="&#xe910;" horiz-adv-x="1192" d="M230.769 263.845c-5.415 1.257-11.636 1.982-18.025 1.992h-127.896c-46.804-0.139-84.709-38.044-84.848-84.835v-11.51c0.139-46.807 38.042-84.714 84.834-84.86h127.903c0.011 0 0.025 0 0.038 0 14.739 0 28.593 3.789 40.641 10.447l-0.433-0.219c-13.903 19.932-22.214 44.664-22.214 71.337 0 0.024 0 0.048 0 0.072v-0.004zM1107.962 614.979h-254.125c0.635-4.624 1.015-9.997 1.048-15.452v-82.29h29.238c19.189-0.020 34.739-15.57 34.759-34.757v-48.693h189.079c46.802 0.145 84.703 38.046 84.848 84.834v11.511c-0.145 46.802-38.046 84.703-84.834 84.848h-0.014zM730.969 40.065c-0.234-1.785-0.564-3.363-1.001-4.896l0.058 0.236-10.985-33.839c11.848-33.525 43.208-57.138 80.102-57.276h133.125c46.802 0.145 84.703 38.046 84.848 84.834v11.511c-0.191 46.767-38.075 84.622-84.834 84.766h-84.349c-17.28-49.275-62.899-84.191-116.828-85.335l-0.135-0.002z" />
<glyph unicode="&#xe911;" horiz-adv-x="1192" d="M845.463 861.206c0-19.216 15.578-34.794 34.794-34.794s34.794 15.578 34.794 34.794v0c0 19.216-15.578 34.794-34.794 34.794s-34.794-15.578-34.794-34.794v0z" />
<glyph unicode="&#xe912;" horiz-adv-x="1192" d="M56.53 590.121c0.003 0 0.008 0 0.012 0 13.729 0 24.858 11.129 24.858 24.858s-11.129 24.858-24.858 24.858c-13.729 0-24.858-11.129-24.858-24.858v0c0-13.725 11.123-24.851 24.846-24.858h0.001z" />
<glyph unicode="&#xe913;" horiz-adv-x="1192" d="M1064.106 246.175c-0.155 0.003-0.337 0.005-0.52 0.005-16.469 0-29.82-13.351-29.82-29.82s13.351-29.82 29.82-29.82c16.304 0 29.552 13.084 29.816 29.325v0.025c0.002 0.137 0.004 0.298 0.004 0.459 0 16.289-13.054 29.528-29.272 29.827h-0.028z" />
<glyph unicode="&#xe914;" horiz-adv-x="1192" d="M889.017 482.477c0 2.728-2.211 4.939-4.939 4.939h-29.238v-209.080h29.284c0 0 0 0 0 0 2.728 0 4.939 2.211 4.939 4.939 0 0.004 0 0.008 0 0.012v-0.001z" />
<glyph unicode="&#xe915;" horiz-adv-x="1192" d="M884.124 517.236h-29.238v82.262c-0.462 68.931-55.735 124.8-124.39 126.221l-0.133 0.002c-0.14 0.513-0.14 1.037-0.315 1.549l-45.266 139.282c-4.651 14.083-17.692 24.066-33.065 24.066-0.022 0-0.045 0-0.067 0h-204.277c-0.043 0-0.093 0-0.143 0-24.266 0-44.828-15.858-51.888-37.775l-0.107-0.386-39.722-125.431c-0.14-0.431-0.14-0.874-0.256-1.305-68.92-1.088-124.385-57.161-124.488-126.213v-433.219c0.084-68.855 55.211-124.807 123.738-126.221l0.132-0.002c0.225-1.727 0.531-3.243 0.93-4.72l-0.057 0.247 39.722-125.408c7.157-22.315 27.722-38.184 51.994-38.184 0.051 0 0.102 0 0.152 0h204.272c0.015 0 0.033 0 0.051 0 15.38 0 28.426 9.988 33.007 23.832l0.070 0.246 45.243 139.27c0.379 1.297 0.71 2.874 0.925 4.488l0.019 0.171c68.621 1.55 123.679 57.449 123.871 126.252v82.258h29.284c19.19 0.027 34.739 15.58 34.759 34.769v199.192c-0.020 19.189-15.57 34.739-34.757 34.759h-0.002zM884.124 278.336h-29.238v209.080h29.238c2.728 0 4.939-2.211 4.939-4.939v0-199.19c0-0.003 0-0.008 0-0.012 0-2.728-2.211-4.939-4.939-4.939 0 0 0 0 0 0v0zM728.558 69.827h-371.46c-53.276 0.060-96.448 43.232-96.508 96.502v433.169c0.099 53.26 43.248 96.409 96.499 96.508h371.423c53.276-0.060 96.448-43.232 96.508-96.502v-433.215c-0.053-53.281-43.228-96.46-96.502-96.52h-0.006zM651.678-98.121h-204.304c-0.026 0-0.056 0-0.086 0-11.026 0-20.367 7.208-23.57 17.17l-0.049 0.175-21.69 68.482h281.196l-26.792-82.367c-0.647-2.041-2.515-3.498-4.727-3.518h-0.002zM700.182 40.007l-12.219-37.625h-290.643l-11.905 37.567zM447.409 860.856h204.245c0.002 0 0.004 0 0.007 0 2.221 0 4.103-1.452 4.748-3.459l0.010-0.035 26.792-82.367h-281.231l21.69 68.482c3.262 10.125 12.601 17.322 23.62 17.322 0.030 0 0.060 0 0.090 0h-0.005zM386.405 725.815l10.903 34.433h290.654l11.183-34.421z" />
<glyph unicode="&#xe916;" horiz-adv-x="1192" d="M397.308 760.236l-10.903-34.421h312.74l-11.183 34.421h-290.654zM683.175 774.972l-26.792 82.367c-0.654 2.042-2.536 3.495-4.757 3.495-0.002 0-0.005 0-0.007 0v0h-204.245c-0.023 0-0.050 0-0.078 0-11.028 0-20.372-7.208-23.578-17.17l-0.049-0.175-21.69-68.482zM687.963 2.382l12.208 37.567h-314.755l11.905-37.567h290.643zM401.979-12.341l21.69-68.435c3.248-10.142 12.592-17.356 23.622-17.356 0.029 0 0.058 0 0.087 0h204.276c2.223 0.001 4.106 1.452 4.754 3.459l0.010 0.035 26.792 82.367z" />
<glyph unicode="&#xe917;" horiz-adv-x="1192" d="M825.019 599.498c-0.060 53.276-43.232 96.448-96.502 96.508h-371.42c-53.26-0.099-96.409-43.248-96.508-96.499v-433.218c0.060-53.276 43.232-96.448 96.502-96.508h371.42c53.276 0.060 96.448 43.232 96.508 96.502v0.006zM320.044 195.294v375.223c0.046 41.83 33.944 75.727 75.769 75.774h293.99c41.808-0.073 75.676-33.962 75.716-75.77v-375.285c-0.046-41.81-33.911-75.694-75.708-75.774h-293.994c-41.827 0.053-75.721 33.946-75.774 75.769v0.005z" />
<glyph unicode="&#xe918;" horiz-adv-x="1192" d="M395.817 149.282h293.986c25.364 0.033 45.915 20.589 45.942 45.951v375.284c-0.020 25.367-20.575 45.927-45.939 45.953h-293.988c-25.369-0.027-45.927-20.585-45.953-45.951v-375.284c0.033-25.366 20.587-45.92 45.95-45.953h0.003zM657.117 382.835c-0.020-63.121-51.195-114.284-114.319-114.284-63.137 0-114.319 51.182-114.319 114.319s51.182 114.319 114.319 114.319c0.008 0 0.016 0 0.025 0h-0.001c63.109-0.086 114.242-51.24 114.295-114.349v-0.005z" />
<glyph unicode="&#xe919;" horiz-adv-x="1192" d="M542.822 467.369c-0.007 0-0.015 0-0.023 0-46.667 0-84.499-37.831-84.499-84.499s37.831-84.499 84.499-84.499c46.655 0 84.479 37.811 84.498 84.462v0.002c-0.026 46.655-37.824 84.474-84.469 84.533h-0.006z" />
<glyph unicode="&#xe91a;" horiz-adv-x="1192" d="M689.803 119.462c41.805 0.079 75.669 33.964 75.716 75.769v375.285c-0.040 41.812-33.908 75.701-75.708 75.774h-293.993c-41.83-0.046-75.727-33.944-75.774-75.769v-375.285c0.053-41.827 33.946-75.721 75.769-75.774h0.005zM349.864 570.517c0.027 25.369 20.585 45.927 45.951 45.953h293.988c25.366-0.027 45.922-20.586 45.942-45.952v-375.283c-0.027-25.365-20.578-45.92-45.939-45.953h-293.989c-25.366 0.033-45.92 20.587-45.953 45.95v0.003z" />
<glyph unicode="&#xe91b;" horiz-adv-x="1192" d="M542.822 497.189c-0.007 0-0.015 0-0.023 0-63.137 0-114.319-51.182-114.319-114.319s51.182-114.319 114.319-114.319c63.124 0 114.299 51.162 114.319 114.282v0.002c-0.053 63.114-51.186 114.268-114.287 114.354h-0.008zM627.297 382.835c-0.020-46.652-37.844-84.464-84.498-84.464-46.667 0-84.499 37.831-84.499 84.499s37.831 84.499 84.499 84.499c0.008 0 0.016 0 0.025 0h-0.001c46.648-0.066 84.442-37.881 84.475-84.53v-0.003z" />
<glyph unicode="&#xe91c;" horiz-adv-x="1517" d="M1040.3 835.178c5.774-4.372 13.077-7.003 20.995-7.003 11.089 0 20.973 5.161 27.38 13.212l0.055 0.071c4.447 5.633 7.133 12.835 7.133 20.664 0 10.972-5.275 20.712-13.427 26.823l-0.087 0.062c-5.771 4.364-13.068 6.991-20.978 6.991-11.099 0-20.99-5.17-27.396-13.233l-0.055-0.072c-4.437-5.629-7.116-12.823-7.116-20.643 0-10.965 5.268-20.699 13.411-26.811l0.087-0.062z" />
<glyph unicode="&#xe91d;" horiz-adv-x="1517" d="M1290.032 271.592c-5.773 4.379-13.078 7.015-20.999 7.015-11.082 0-20.958-5.159-27.359-13.207l-0.055-0.071c-4.447-5.633-7.133-12.835-7.133-20.664 0-10.972 5.275-20.712 13.427-26.823l0.087-0.062c5.771-4.364 13.068-6.991 20.978-6.991 11.099 0 20.99 5.17 27.396 13.233l0.055 0.072c4.432 5.625 7.108 12.814 7.108 20.627 0 10.966-5.272 20.702-13.42 26.809l-0.087 0.062z" />
<glyph unicode="&#xe91e;" horiz-adv-x="1517" d="M208.141 493.394c0-20.437 16.87-37.004 37.681-37.004s37.681 16.567 37.681 37.004v0c0 20.437-16.87 37.004-37.681 37.004s-37.681-16.567-37.681-37.004v0z" />
<glyph unicode="&#xe91f;" horiz-adv-x="1517" d="M183.021 220.809h-82.539c-55.268 0-100.482-44.401-100.482-98.654 0-54.27 45.214-98.654 100.482-98.654h82.539c55.268 0 100.482 44.384 100.482 98.654 0 54.253-45.18 98.654-100.482 98.654zM1039.538-17.023h-136.555c-0.254-2.912-0.457-5.84-0.457-8.802 0-56.199 46.839-102.175 104.071-102.175h109.454c57.232 0 104.054 45.975 104.054 102.175 0 52.475-40.795 95.962-92.78 101.565v-6.551c0-47.55-39.373-86.212-87.786-86.212zM1421.17 588.425h-293.845v-190.080h293.845c53.237 0 96.792 42.759 96.792 95.031 0.085 52.34-43.555 95.048-96.792 95.048z" />
<glyph unicode="&#xe920;" horiz-adv-x="1517" d="M1095.027 657.828c0 30.046-24.884 54.49-55.489 54.49h-16.792v-437.56l-10.157-7.888c-0.085 0-0.135-0.169-0.22-0.237l-103.089-80.965-89.716-74.481c-0.355-0.305-0.762-0.525-1.134-0.796l-15.336-12.967h-242.199c-36.208 0-65.662 28.912-65.662 64.46v550.433h-16.809c-30.588 0-55.489-24.443-55.489-54.49v-588.656c0-30.046 24.9-54.49 55.489-54.49h561.115c30.605 0 55.489 24.443 55.489 54.49z" />
<glyph unicode="&#xe921;" horiz-adv-x="1517" d="M1127.325 657.828c0 47.533-39.373 86.195-87.786 86.195h-113.685v18.976c0 16.707-15.387 30.3-34.312 30.3h-44.282c-0.060-0.003-0.129-0.005-0.2-0.005-0.871 0-1.68 0.261-2.355 0.709l0.016-0.010c-12.831 29.945-47.296 50.055-85.738 50.055s-72.924-20.11-85.62-49.919c-0.617-0.524-1.423-0.842-2.304-0.842-0.107 0-0.212 0.005-0.317 0.014l0.014-0.001h-44.333c-18.908 0-34.312-13.542-34.312-30.3v-18.976h-113.685c-48.396 0-87.786-38.663-87.786-86.195v-588.656c0-47.533 39.39-86.195 87.786-86.195h561.115c48.413 0 87.786 38.663 87.786 86.195v588.656zM1039.538 14.682h-561.115c-30.588 0-55.489 24.443-55.489 54.49v588.656c0 30.046 24.9 54.49 55.489 54.49h16.809v-550.366c0-35.548 29.454-64.46 65.662-64.46h242.199l15.336 12.967c0.372 0.271 0.779 0.491 1.134 0.796l89.716 74.481 103.089 80.965s0.135 0.169 0.22 0.237l10.157 7.888v437.493h16.792c30.605 0 55.489-24.443 55.489-54.49v-588.656c0-30.046-24.884-54.49-55.489-54.49zM626.421 761.594h44.266c14.388 0 27.084 7.888 32.315 20.093 7.854 18.333 30.351 30.656 55.979 30.656s48.108-12.323 55.979-30.656c5.231-12.205 17.909-20.093 32.298-20.093h44.282c0.019 0 0.041 0 0.063 0 0.7 0 1.371-0.124 1.992-0.352l-0.040 0.013v-78.933c-0.561-0.215-1.211-0.34-1.889-0.34-0.044 0-0.088 0.001-0.132 0.002h-265.112c-0.034-0.001-0.074-0.001-0.114-0.001-0.682 0-1.335 0.125-1.938 0.352l0.038-0.013v78.933c0.585 0.215 1.261 0.339 1.966 0.339 0.017 0 0.034 0 0.051 0h-0.003zM626.421 650.261h265.119c18.925 0 34.312 13.542 34.312 30.3v31.756h64.596v-413.997h-141.040c-0.051 0-0.111 0-0.171 0-24.081 0-44.050-17.6-47.748-40.638l-0.037-0.277-18.062-126.517c-0.085-0.576 0-1.117 0-1.693h-222.496c-0.081-0.001-0.177-0.001-0.273-0.001-18.162 0-32.908 14.623-33.108 32.737v550.385h64.596v-31.756c0-16.691 15.404-30.3 34.312-30.3zM960.554 266.615l-71.705-56.318-69.911-58.011 14.422 100.702c1.284 7.725 7.917 13.542 15.908 13.542 0.025 0 0.050 0 0.075 0h-0.004z" />
<glyph unicode="&#xe922;" horiz-adv-x="1517" d="M527.513 712.318v-550.366c0.2-18.133 14.947-32.756 33.108-32.756 0.096 0 0.192 0 0.287 0.001h222.481c0 0.576-0.102 1.117 0 1.693l18.129 126.517c3.735 23.314 23.705 40.914 47.785 40.914 0.036 0 0.072 0 0.109 0h141.051v413.997h-64.612v-31.756c0-16.691-15.387-30.3-34.312-30.3h-265.119c-18.908 0-34.312 13.542-34.312 30.3v31.756zM701.867 536.153h200.422c0.172 0.005 0.374 0.008 0.576 0.008 10.845 0 19.636-8.791 19.636-19.636s-8.791-19.636-19.636-19.636c-0.203 0-0.405 0.003-0.606 0.009l0.029-0.001h-200.456c-0.172-0.005-0.374-0.008-0.576-0.008-10.845 0-19.636 8.791-19.636 19.636s8.791 19.636 19.636 19.636c0.203 0 0.405-0.003 0.606-0.009l-0.029 0.001zM704.745 454.24h194.667c12.406 0 22.463-10.057 22.463-22.463s-10.057-22.463-22.463-22.463v0h-194.667c-12.406 0-22.463 10.057-22.463 22.463s10.057 22.463 22.463 22.463v0zM681.825 347.664c0.162 12.188 10.080 22.006 22.292 22.006 0.048 0 0.096 0 0.145 0h75.354c0.031 0 0.067 0 0.103 0 12.211 0 22.13-9.818 22.292-21.991v-0.015c-0.162-12.188-10.080-22.006-22.292-22.006-0.048 0-0.096 0-0.145 0h-75.304c-0.046 0-0.1-0.001-0.154-0.001-12.211 0-22.13 9.818-22.292 21.991v0.015zM614.741 537.592c1.124 0.215 2.417 0.338 3.739 0.338 10.125 0 18.564-7.222 20.446-16.795l0.022-0.132c0.186-1.037 0.292-2.231 0.292-3.449 0-10.167-7.395-18.606-17.099-20.233l-0.12-0.017c-1.124-0.215-2.417-0.338-3.739-0.338-10.134 0-18.581 7.229-20.463 16.812l-0.022 0.132c-0.182 1.027-0.286 2.209-0.286 3.416 0 10.174 7.399 18.62 17.11 20.249l0.12 0.017zM614.741 451.515c1.124 0.215 2.417 0.338 3.739 0.338 10.125 0 18.564-7.222 20.446-16.795l0.022-0.132c0.195-1.062 0.306-2.283 0.306-3.531 0-10.172-7.402-18.615-17.114-20.235l-0.12-0.017c-1.124-0.215-2.417-0.338-3.739-0.338-10.134 0-18.581 7.229-20.463 16.812l-0.022 0.132c-0.191 1.052-0.3 2.262-0.3 3.498 0 10.179 7.407 18.628 17.125 20.252l0.12 0.017zM614.741 365.438c1.124 0.215 2.417 0.338 3.739 0.338 10.125 0 18.564-7.222 20.446-16.795l0.022-0.132c0.195-1.062 0.306-2.283 0.306-3.531 0-10.172-7.402-18.615-17.114-20.235l-0.12-0.017c-1.124-0.215-2.417-0.338-3.739-0.338-10.134 0-18.581 7.229-20.463 16.812l-0.022 0.132c-0.191 1.052-0.3 2.262-0.3 3.498 0 10.179 7.407 18.628 17.125 20.252l0.12 0.017z" />
<glyph unicode="&#xe923;" horiz-adv-x="1517" d="M833.411 252.989l-14.473-100.702 69.86 58.011 71.705 56.318h-111.096c-0.022 0-0.048 0-0.075 0-8.022 0-14.675-5.861-15.91-13.535l-0.012-0.092zM624.407 682.322c0.565-0.215 1.218-0.34 1.9-0.34 0.040 0 0.080 0 0.12 0.001h265.113c0.037-0.001 0.081-0.001 0.125-0.001 0.678 0 1.328 0.125 1.926 0.352l-0.037-0.012v78.933c-0.581 0.215-1.252 0.339-1.952 0.339-0.022 0-0.044 0-0.066 0h-44.279c-14.388 0-27.084 7.888-32.298 20.093-7.871 18.333-30.368 30.656-55.979 30.656s-48.125-12.323-55.979-30.656c-5.248-12.205-17.926-20.093-32.315-20.093h-44.266c-0.014 0-0.031 0-0.048 0-0.705 0-1.381-0.124-2.007-0.352l0.041 0.013z" />
<glyph unicode="&#xe924;" horiz-adv-x="1517" d="M622.054 497.219c9.825 1.643 17.22 10.083 17.22 20.25 0 1.218-0.106 2.412-0.31 3.572l0.018-0.123c-1.904 9.706-10.342 16.927-20.468 16.927-1.322 0-2.615-0.123-3.868-0.358l0.129 0.020c-9.825-1.652-17.217-10.095-17.217-20.264 0-1.213 0.105-2.402 0.307-3.558l-0.018 0.123c1.912-9.705 10.353-16.924 20.481-16.924 1.317 0 2.605 0.122 3.854 0.355l-0.129-0.020zM622.054 411.143c9.831 1.637 17.234 10.080 17.234 20.252 0 1.248-0.111 2.47-0.325 3.656l0.019-0.125c-1.904 9.706-10.342 16.927-20.468 16.927-1.322 0-2.615-0.123-3.868-0.358l0.129 0.020c-9.825-1.652-17.217-10.095-17.217-20.264 0-1.213 0.105-2.402 0.307-3.558l-0.018 0.123c1.879-9.745 10.34-17.006 20.497-17.006 1.311 0 2.594 0.121 3.839 0.353l-0.129-0.020zM622.054 325.066c9.831 1.637 17.234 10.080 17.234 20.252 0 1.248-0.111 2.47-0.325 3.656l0.019-0.125c-1.904 9.706-10.342 16.927-20.468 16.927-1.322 0-2.615-0.123-3.868-0.358l0.129 0.020c-9.825-1.652-17.217-10.095-17.217-20.264 0-1.213 0.105-2.402 0.307-3.558l-0.018 0.123c1.879-9.745 10.34-17.006 20.497-17.006 1.311 0 2.594 0.121 3.839 0.353l-0.129-0.020zM701.833 496.898h200.456c0.172-0.005 0.374-0.008 0.576-0.008 10.845 0 19.636 8.791 19.636 19.636s-8.791 19.636-19.636 19.636c-0.203 0-0.405-0.003-0.606-0.009l0.029 0.001h-200.456c-0.172 0.005-0.374 0.008-0.576 0.008-10.845 0-19.636-8.791-19.636-19.636s8.791-19.636 19.636-19.636c0.203 0 0.405 0.003 0.606 0.009l-0.029-0.001zM704.711 409.315h194.667c12.406 0 22.463 10.057 22.463 22.463s-10.057 22.463-22.463 22.463v0h-194.667c-12.406 0-22.463-10.057-22.463-22.463s10.057-22.463 22.463-22.463v0zM704.271 325.659h75.361c0.026 0 0.056 0 0.086 0 12.211 0 22.129 9.818 22.292 21.991v0.015c-0.162 12.188-10.080 22.006-22.292 22.006-0.048 0-0.096 0-0.145 0h-75.304c-0.046 0-0.1 0.001-0.154 0.001-12.211 0-22.13-9.818-22.292-21.991v-0.015c0.162-12.188 10.080-22.006 22.292-22.006 0.054 0 0.108 0 0.163 0.001h-0.008z" />
<glyph unicode="&#xe925;" horiz-adv-x="1476" d="M955.649 836.329c5.543-4.284 12.592-6.868 20.243-6.868 18.374 0 33.269 14.895 33.269 33.269s-14.895 33.269-33.269 33.269c-10.723 0-20.262-5.073-26.346-12.951l-0.057-0.077c-4.283-5.543-6.866-12.59-6.866-20.241 0-10.722 5.072-20.26 12.948-26.344l0.077-0.057z" />
<glyph unicode="&#xe926;" horiz-adv-x="1476" d="M1340.099 212.13c-5.544 4.286-12.593 6.869-20.246 6.869-18.374 0-33.269-14.895-33.269-33.269s14.895-33.269 33.269-33.269c10.715 0 20.247 5.066 26.332 12.933l0.057 0.077c4.292 5.546 6.88 12.601 6.88 20.259 0 10.721-5.071 20.258-12.946 26.342l-0.077 0.057z" />
<glyph unicode="&#xe927;" horiz-adv-x="1476" d="M179.535 542.478c0-0.002 0-0.004 0-0.006 0-20.047 16.252-36.299 36.299-36.299s36.299 16.252 36.299 36.299c0 0.002 0 0.004 0 0.006v0c0 0.002 0 0.004 0 0.006 0 20.047-16.252 36.299-36.299 36.299s-36.299-16.252-36.299-36.299c0-0.002 0-0.004 0-0.006v0z" />
<glyph unicode="&#xe928;" horiz-adv-x="1476" d="M176.307 282.522h-79.515c-53.457 0-96.792-43.335-96.792-96.792s43.335-96.792 96.792-96.792v0h79.515c53.457 0 96.792 43.335 96.792 96.792s-43.335 96.792-96.792 96.792v0zM1016.439-12.021h-31.605v-39.84c0-1.647-0.132-3.294-0.247-4.826h100.893c0.088 0 0.191 0 0.295 0 55.33 0 100.185 44.854 100.185 100.185 0 52.942-41.066 96.293-93.082 99.937l-0.316 0.018v-79.351c-0.047-42.022-34.1-76.076-76.118-76.123h-0.005zM1382.871 644.458h-290.31v-186.452h290.31c51.501 0 93.251 41.75 93.251 93.251s-41.75 93.251-93.251 93.251v0z" />
<glyph unicode="&#xe929;" horiz-adv-x="1476" d="M1061.45 658.556c-0.028 24.848-20.164 44.983-45.009 45.011h-472.993c-24.848-0.028-44.983-20.164-45.011-45.009v-39.859h410.275c42.022-0.047 76.076-34.1 76.123-76.118v-523.492h31.605c24.848 0.028 44.983 20.164 45.011 45.009v0.003z" />
<glyph unicode="&#xe92a;" horiz-adv-x="1476" d="M1092.561 658.556c-0.047 42.022-34.1 76.076-76.118 76.123h-472.995c-42.022-0.047-76.076-34.1-76.123-76.118v-39.861h-31.605c-42.022-0.047-76.076-34.1-76.123-76.118v-594.443c0.066-42.012 34.11-76.050 76.117-76.106h472.996c40.302 0.069 73.257 31.433 75.864 71.086l0.012 0.228c0.115 1.647 0.247 3.195 0.247 4.826v39.807h31.605c42.022 0.047 76.076 34.1 76.123 76.118v594.459zM1016.439 19.090h-31.605v523.487c-0.047 42.022-34.1 76.076-76.118 76.123h-410.279v39.856c0.028 24.848 20.164 44.983 45.009 45.011h472.993c24.848-0.028 44.983-20.164 45.011-45.009v-594.457c-0.028-24.848-20.164-44.983-45.009-45.011h-0.003zM953.722-51.861c-0.028-24.848-20.164-44.983-45.009-45.011h-472.993c-24.848 0.028-44.983 20.164-45.011 45.009v277.615h563.014zM953.722 436.611v-179.749h-563.014v179.749zM908.711 587.588c24.848-0.028 44.983-20.164 45.011-45.009v-74.841h-563.014v74.838c0.028 24.848 20.164 44.983 45.009 45.011h0.003z" />
<glyph unicode="&#xe92b;" horiz-adv-x="1476" d="M435.72 587.588c-24.848-0.028-44.983-20.164-45.011-45.009v-74.841h563.014v74.838c-0.028 24.848-20.164 44.983-45.009 45.011h-0.003zM567.74 524.131h265.852c10.352-0.313 18.625-8.78 18.625-19.179s-8.273-18.866-18.596-19.178l-0.029-0.001h-265.852c-0.167-0.005-0.364-0.008-0.562-0.008-10.597 0-19.187 8.59-19.187 19.187s8.59 19.187 19.187 19.187c0.198 0 0.395-0.003 0.591-0.009l-0.029 0.001zM508.549 504.96c0-0.005 0-0.011 0-0.016 0-14.181-11.496-25.676-25.676-25.676s-25.676 11.496-25.676 25.676c0 14.181 11.496 25.676 25.676 25.676v0c14.175 0 25.667-11.486 25.676-25.659v-0.001zM953.722 225.751h-563.014v-277.612c0.028-24.848 20.164-44.983 45.009-45.011h472.993c24.848 0.028 44.983 20.164 45.011 45.009v0.003zM515.878 160.828h312.676c10.352-0.313 18.625-8.78 18.625-19.179s-8.273-18.866-18.596-19.178l-0.029-0.001h-312.676c-10.352 0.313-18.625 8.78-18.625 19.179s8.273 18.866 18.596 19.178l0.029 0.001zM515.878 68.779h312.676c10.588 0 19.171-8.583 19.171-19.171s-8.583-19.171-19.171-19.171v0h-312.676c-10.588 0-19.171 8.583-19.171 19.171s8.583 19.171 19.171 19.171v0z" />
<glyph unicode="&#xe92c;" horiz-adv-x="1476" d="M390.709 256.862h563.014v179.749h-563.014zM567.74 361.329h265.852c10.352-0.313 18.625-8.78 18.625-19.179s-8.273-18.866-18.596-19.178l-0.029-0.001h-265.852c-0.167-0.005-0.364-0.008-0.562-0.008-10.597 0-19.187 8.59-19.187 19.187s8.59 19.187 19.187 19.187c0.198 0 0.395-0.003 0.591-0.009l-0.029 0.001zM482.873 367.768c0.005 0 0.011 0 0.016 0 14.181 0 25.676-11.496 25.676-25.676s-11.496-25.676-25.676-25.676c-14.181 0-25.676 11.496-25.676 25.676 0 0.006 0 0.012 0 0.017v-0.001c0.009 14.168 11.492 25.65 25.659 25.66h0.001z" />
<glyph unicode="&#xe92d;" horiz-adv-x="1476" d="M457.213 504.96c0-0.005 0-0.011 0-0.016 0-14.181 11.496-25.676 25.676-25.676s25.676 11.496 25.676 25.676c0 14.181-11.496 25.676-25.676 25.676-0.006 0-0.012 0-0.017 0h0.001c-14.168-0.009-25.65-11.492-25.66-25.659v-0.001zM567.74 485.773h265.852c10.352 0.313 18.625 8.78 18.625 19.179s-8.273 18.866-18.596 19.178l-0.029 0.001h-265.852c-0.167 0.005-0.364 0.008-0.562 0.008-10.597 0-19.187-8.59-19.187-19.187s8.59-19.187 19.187-19.187c0.198 0 0.395 0.003 0.591 0.009l-0.029-0.001z" />
<glyph unicode="&#xe92e;" horiz-adv-x="1476" d="M482.873 316.482c0.005 0 0.011 0 0.016 0 14.181 0 25.676 11.496 25.676 25.676s-11.496 25.676-25.676 25.676c-14.181 0-25.676-11.496-25.676-25.676v0c0-14.175 11.486-25.667 25.659-25.676h0.001zM567.74 322.971h265.852c10.352 0.313 18.625 8.78 18.625 19.179s-8.273 18.866-18.596 19.178l-0.029 0.001h-265.852c-0.167 0.005-0.364 0.008-0.562 0.008-10.597 0-19.187-8.59-19.187-19.187s8.59-19.187 19.187-19.187c0.198 0 0.395 0.003 0.591 0.009l-0.029-0.001z" />
<glyph unicode="&#xe92f;" horiz-adv-x="1476" d="M515.878 122.47h312.676c10.352 0.313 18.625 8.78 18.625 19.179s-8.273 18.866-18.596 19.178l-0.029 0.001h-312.676c-10.352-0.313-18.625-8.78-18.625-19.179s8.273-18.866 18.596-19.178l0.029-0.001zM515.878 30.438h312.676c10.588 0 19.171 8.583 19.171 19.171s-8.583 19.171-19.171 19.171v0h-312.676c-10.588 0-19.171-8.583-19.171-19.171s8.583-19.171 19.171-19.171v0z" />
<glyph unicode="&#xe930;" horiz-adv-x="1694" d="M471.105 786.253c6.367-4.921 14.461-7.887 23.249-7.887 21.102 0 38.209 17.107 38.209 38.209s-17.107 38.209-38.209 38.209c-12.316 0-23.27-5.827-30.258-14.874l-0.066-0.089c-4.92-6.366-7.885-14.46-7.885-23.247 0-12.314 5.826-23.268 14.871-30.256l0.088-0.066z" />
<glyph unicode="&#xe931;" horiz-adv-x="1694" d="M1607.159 320.123c-6.368 4.925-14.467 7.894-23.258 7.894-21.102 0-38.209-17.107-38.209-38.209s17.107-38.209 38.209-38.209c12.321 0 23.28 5.832 30.267 14.885l0.066 0.089c4.914 6.364 7.876 14.453 7.876 23.235 0 12.31-5.822 23.261-14.862 30.249l-0.088 0.066z" />
<glyph unicode="&#xe932;" horiz-adv-x="1694" d="M206.139 644.105c0-23.014 18.656-41.67 41.67-41.67s41.67 18.656 41.67 41.67v0c0 23.014-18.656 41.67-41.67 41.67s-41.67-18.656-41.67-41.67v0z" />
<glyph unicode="&#xe933;" horiz-adv-x="1694" d="M202.394 400.948h-91.266c-60.758-0.818-109.696-50.262-109.696-111.137s48.939-110.319 109.62-111.136l0.077-0.001h91.266c60.758 0.818 109.696 50.262 109.696 111.137s-48.939 110.319-109.62 111.136l-0.077 0.001zM1316.015 11.482h42.219c0.239-0.002 0.521-0.003 0.804-0.003 63.548 0 115.065 51.516 115.065 115.065 0 63.266-51.059 114.606-114.217 115.062h-0.043c-15.895-53.817-38.418-100.781-67.173-143.174l1.14 1.782zM1587.752 816.575h-445.815c81.811-52.447 146.498-125.105 187.967-211.066l1.337-3.075h256.511c58.523 0.803 105.656 48.432 105.656 107.070s-47.133 106.268-105.581 107.069l-0.076 0.001z" />
<glyph unicode="&#xe934;" horiz-adv-x="1694" d="M893.2 859.645q-12.408 0.662-24.741 0.643c-263.288-0.067-476.7-213.52-476.7-476.817 0-15.070 0.699-29.977 2.067-44.69l-0.141 1.885c18.915-213.005 214.689-410.236 427.486-430.702 13.882-1.437 29.995-2.256 46.299-2.256 105.433 0 202.864 34.26 281.767 92.256l-1.323-0.928 6.488 4.729 133.996-29.13-33.121 132.407 4.596 6.658c52.911 75.147 84.564 168.581 84.564 269.407 0 12.483-0.485 24.852-1.438 37.091l0.101-1.621c-17.137 239.090-210.528 428.659-449.901 441.067zM867.967-20.845c-223.201 0-404.788 181.587-404.788 404.788s181.587 404.788 404.788 404.788 404.788-181.587 404.788-404.788-181.549-404.788-404.788-404.788z" />
<glyph unicode="&#xe935;" horiz-adv-x="1694" d="M1141.937 816.575c-77.56 49.727-172.198 79.267-273.736 79.267-282.926 0-512.284-229.357-512.284-512.284 0-16.214 0.753-32.251 2.227-48.080l-0.152 2.028c20.315-229.027 230.862-441.086 459.718-463.123q24.798-2.421 49.539-2.383c0.11 0 0.239 0 0.369 0 110.429 0 212.685 34.997 296.281 94.504l-1.571-1.062 135.642-29.394c1.573-0.355 3.38-0.558 5.234-0.558 13.716 0 24.836 11.119 24.836 24.836 0 2.126-0.267 4.189-0.769 6.158l0.037-0.172-11.349 45.151-22.15 88.751c53.969 79.859 86.153 178.293 86.153 284.245 0 79.167-17.968 154.137-50.049 221.055l1.33-3.079c-42.807 89.035-107.493 161.693-187.259 212.911l-2.046 1.229zM1259.874 113.814l-4.596-6.658 33.121-132.407-133.996 29.016-6.488-4.729c-77.582-57.071-175.015-91.333-280.451-91.333-16.322 0-32.451 0.821-48.351 2.424l2.002-0.163c-212.835 20.466-408.571 217.696-427.486 430.702-1.226 12.827-1.925 27.735-1.925 42.805 0 263.317 213.443 476.782 476.752 476.817h0.004q12.333 0 24.741-0.643c239.373-12.408 432.764-201.978 449.787-440.954 0.858-10.662 1.347-23.083 1.347-35.617 0-100.763-31.613-194.143-85.462-270.762l1.001 1.502z" />
<glyph unicode="&#xe936;" horiz-adv-x="1694" d="M1237.062 384c0 203.491-165.566 369.133-369.095 369.133s-369.133-165.641-369.133-369.133 165.585-369.133 369.133-369.133 369.095 165.604 369.095 369.133zM1054.983 433.18c-19.18 0-34.729 15.548-34.729 34.729s15.548 34.729 34.729 34.729c19.18 0 34.729-15.548 34.729-34.729v0c0-0.017 0-0.037 0-0.057 0-19.173-15.538-34.718-34.709-34.729h-0.001zM680.895 433.18c-19.18 0-34.729 15.548-34.729 34.729s15.548 34.729 34.729 34.729c19.18 0 34.729-15.548 34.729-34.729v0c0-0.017 0-0.037 0-0.057 0-19.16-15.516-34.696-34.669-34.728h-0.003zM996.932 394.479c-0.214-71.16-57.843-128.788-128.982-129.002h-0.021c-71.156 0.214-128.78 57.845-128.984 128.983v13.923h258.005z" />
<glyph unicode="&#xe937;" horiz-adv-x="1694" d="M867.967 788.864c-223.201 0-404.788-181.587-404.788-404.788s181.587-404.788 404.788-404.788 404.788 181.587 404.788 404.788-181.549 404.788-404.788 404.788zM867.967 14.868c-203.548 0-369.133 165.604-369.133 369.133s165.585 369.133 369.133 369.133 369.095-165.641 369.095-369.133-165.566-369.133-369.095-369.133z" />
<glyph unicode="&#xe938;" horiz-adv-x="1694" d="M680.952 502.58c-19.18 0-34.729-15.548-34.729-34.729s15.548-34.729 34.729-34.729c19.18 0 34.729 15.548 34.729 34.729v0c0 19.18-15.548 34.729-34.729 34.729v0zM1055.002 502.58c-19.18 0-34.729-15.548-34.729-34.729s15.548-34.729 34.729-34.729c19.18 0 34.729 15.548 34.729 34.729v0c0 19.18-15.548 34.729-34.729 34.729v0z" />
<glyph unicode="&#xe939;" horiz-adv-x="1694" d="M738.965 394.422c0.204-71.157 57.828-128.788 128.963-129.002h0.021c71.16 0.214 128.788 57.843 129.002 128.982v13.924h-257.986z" />
</font>
</defs>
</svg>
